<svg width="560" height="461" viewBox="0 0 560 461" fill="none" xmlns="http://www.w3.org/2000/svg">
<path d="M294 0L416.5 185.5L476 78L531.5 228.25L559.5 396H466.191H80.8093H0.5L119 111.75L178.5 228.25L294 0Z" fill="url(#paint0_radial_61898_17)"/>
<path d="M208.659 425.091L219.023 454.477H219.432L229.795 425.091H234.227L221.409 460H217.045L204.227 425.091H208.659ZM262.574 425.091H266.801V448.205C266.801 450.591 266.239 452.722 265.114 454.597C264 456.46 262.426 457.932 260.392 459.011C258.358 460.08 255.972 460.614 253.233 460.614C250.494 460.614 248.108 460.08 246.074 459.011C244.04 457.932 242.46 456.46 241.335 454.597C240.222 452.722 239.665 450.591 239.665 448.205V425.091H243.892V447.864C243.892 449.568 244.267 451.085 245.017 452.415C245.767 453.733 246.835 454.773 248.222 455.534C249.619 456.284 251.29 456.659 253.233 456.659C255.176 456.659 256.847 456.284 258.244 455.534C259.642 454.773 260.71 453.733 261.449 452.415C262.199 451.085 262.574 449.568 262.574 447.864V425.091ZM274.084 460V456.932L292.902 428.841H273.879V425.091H297.947V428.159L279.129 456.25H298.152V460H274.084ZM318.129 460V456.932L329.652 444.318C331.004 442.841 332.118 441.557 332.993 440.466C333.868 439.364 334.516 438.33 334.936 437.364C335.368 436.386 335.584 435.364 335.584 434.295C335.584 433.068 335.288 432.006 334.697 431.108C334.118 430.21 333.322 429.517 332.311 429.028C331.3 428.54 330.163 428.295 328.902 428.295C327.561 428.295 326.391 428.574 325.391 429.131C324.402 429.676 323.635 430.443 323.089 431.432C322.555 432.42 322.288 433.58 322.288 434.909H318.266C318.266 432.864 318.737 431.068 319.68 429.523C320.624 427.977 321.908 426.773 323.533 425.909C325.169 425.045 327.004 424.614 329.038 424.614C331.084 424.614 332.896 425.045 334.476 425.909C336.055 426.773 337.294 427.937 338.192 429.403C339.089 430.869 339.538 432.5 339.538 434.295C339.538 435.58 339.305 436.835 338.839 438.062C338.385 439.278 337.589 440.636 336.453 442.136C335.328 443.625 333.766 445.443 331.766 447.591L323.925 455.977V456.25H340.152V460H318.129ZM350.192 460.273C349.351 460.273 348.629 459.972 348.027 459.369C347.425 458.767 347.124 458.045 347.124 457.205C347.124 456.364 347.425 455.642 348.027 455.04C348.629 454.437 349.351 454.136 350.192 454.136C351.033 454.136 351.754 454.437 352.357 455.04C352.959 455.642 353.26 456.364 353.26 457.205C353.26 457.761 353.118 458.273 352.834 458.739C352.561 459.205 352.192 459.58 351.726 459.864C351.271 460.136 350.76 460.273 350.192 460.273ZM370.578 460.477C368.01 460.477 365.822 459.778 364.016 458.381C362.209 456.972 360.828 454.932 359.874 452.261C358.919 449.58 358.442 446.341 358.442 442.545C358.442 438.773 358.919 435.551 359.874 432.881C360.839 430.199 362.226 428.153 364.033 426.744C365.851 425.324 368.033 424.614 370.578 424.614C373.124 424.614 375.3 425.324 377.107 426.744C378.925 428.153 380.311 430.199 381.266 432.881C382.232 435.551 382.714 438.773 382.714 442.545C382.714 446.341 382.237 449.58 381.283 452.261C380.328 454.932 378.947 456.972 377.141 458.381C375.334 459.778 373.146 460.477 370.578 460.477ZM370.578 456.727C373.124 456.727 375.101 455.5 376.51 453.045C377.919 450.591 378.624 447.091 378.624 442.545C378.624 439.523 378.3 436.949 377.652 434.824C377.016 432.699 376.095 431.08 374.891 429.966C373.697 428.852 372.26 428.295 370.578 428.295C368.055 428.295 366.084 429.54 364.663 432.028C363.243 434.506 362.533 438.011 362.533 442.545C362.533 445.568 362.851 448.136 363.487 450.25C364.124 452.364 365.038 453.972 366.232 455.074C367.436 456.176 368.885 456.727 370.578 456.727Z" fill="#5577AA"/>
<defs>
<radialGradient id="paint0_radial_61898_17" cx="0" cy="0" r="1" gradientUnits="userSpaceOnUse" gradientTransform="translate(264 6) rotate(86.0921) scale(264.114 375.952)">
<stop stop-color="white"/>
<stop offset="1" stop-color="#5577AA"/>
<stop offset="1" stop-color="#5577AA" stop-opacity="0"/>
</radialGradient>
</defs>
</svg>
